# xmcd
#
# Track frame offsets:
#	150
#	11045
#	26472
#	40027
#	52272
#	64497
#	76665
#	89185
#	103737
#	114745
#	131525
#	145275
#	158310
#	171372
#	184087
#	194782
#	207217
#	220385
#	231392
#	240915
#	254537
#	266675
#
# Disc length: 3732 seconds
#
# Revision: 1
# Processed by: cddbd v1.5PL3 Copyright (c) Steve Scherf et al.
# Submitted via: audiograbber 1.82.01
#
DISCID=480e9216
DTITLE=George Jones and Tammy Wynette - I Love Country
DYEAR=1990
DGENRE=
TTITLE0=A Pair Of Old Sneakers
TTITLE1=Right In The Wrong Direction
TTITLE2=I Just Started Livin' Today
TTITLE3=Love In The Meantime
TTITLE4=We Could
TTITLE5=Two Story House
TTITLE6=If We Don't Make It
TTITLE7=It's Not My Fault
TTITLE8=We'll Talk About It Later
TTITLE9=Night Spell
TTITLE10=Golden Ring
TTITLE11=Southern California
TTITLE12=My Elusive Dreams
TTITLE13=Roll In My Sweet Baby's Arms
TTITLE14=Near You
TTITLE15=It Sure Was Good
TTITLE16=Let's Build A World Together
TTITLE17=(We're Not ) The Jet Set
TTITLE18=A Hard Act To Follow
TTITLE19=Together Alone
TTITLE20=Stand By Your Man
TTITLE21=We're Gonna Hold On
EXTD=CBS Records Inc. 466320 2
EXTT0=
EXTT1=
EXTT2=
EXTT3=
EXTT4=
EXTT5=
EXTT6=
EXTT7=
EXTT8=
EXTT9=
EXTT10=
EXTT11=
EXTT12=
EXTT13=
EXTT14=
EXTT15=
EXTT16=
EXTT17=
EXTT18=
EXTT19=
EXTT20=
EXTT21=
PLAYORDER=
